<svg xmlns="http://www.w3.org/2000/svg" width="23.208" height="26.853" viewBox="0 0 23.208 26.853">
  <g id="Group_6473" data-name="Group 6473" transform="translate(-354.102 -37.875)">
    <path id="Path_426" data-name="Path 426" d="M14.191,1.747V2.814a8.165,8.165,0,0,0-1.454-.132H11.6a8.615,8.615,0,0,0-1.388.123c-.019,0-.047.009-.066.009V1.747A1.749,1.749,0,0,1,11.9,0h.548a1.749,1.749,0,0,1,1.747,1.747" transform="translate(353.686 37.875)" fill="#12c9cf"/>
    <path id="Path_427" data-name="Path 427" d="M15.452,25.261v.028a2.974,2.974,0,1,1-5.948,0v-.028Z" transform="translate(353.582 36.465)" fill="#12c9cf"/>
    <path id="Path_428" data-name="Path 428" d="M23.208,22.227v.028c0,.057-.009.113-.009.161a.976.976,0,0,1-.567.689.57.57,0,0,1-.179.057,1.162,1.162,0,0,1-.189.019H.944a1.162,1.162,0,0,1-.189-.019.57.57,0,0,1-.179-.057.976.976,0,0,1-.567-.689c0-.047-.009-.1-.009-.161v-.028a.967.967,0,0,1,.3-.689L3.069,18.97V11.436A7.978,7.978,0,0,1,9.583,3.6c.019,0,.047-.009.066-.009a8.615,8.615,0,0,1,1.388-.123h.633a8.033,8.033,0,0,1,1.954.245V3.6a7.959,7.959,0,0,1,6.505,7.836V18.97l2.776,2.568a.967.967,0,0,1,.3.689" transform="translate(354.102 37.684)" fill="#345fb4"/>
  </g>
</svg>
