<?xml version="1.0" encoding="utf-8"?>
<!-- Generator: Adobe Illustrator 14.0.0, SVG Export Plug-In . SVG Version: 6.00 Build 43363)  -->
<!DOCTYPE svg PUBLIC "-//W3C//DTD SVG 1.1//EN" "http://www.w3.org/Graphics/SVG/1.1/DTD/svg11.dtd">
<svg version="1.1" id="Layer_1" xmlns="http://www.w3.org/2000/svg" xmlns:xlink="http://www.w3.org/1999/xlink" x="0px" y="0px"
	 width="128px" height="128px" viewBox="-36 -24 128 128" enable-background="new -36 -24 128 128" xml:space="preserve">
<circle fill="#FFFFFF" cx="28" cy="40" r="64"/>
<circle fill="#A4DAF6" cx="28" cy="40" r="56.25"/>
<circle fill="#FFFFFF" cx="28" cy="40" r="64"/>
<radialGradient id="SVGID_1_" cx="28" cy="40" r="56.25" gradientUnits="userSpaceOnUse">
	<stop  offset="0" style="stop-color:#FFFFFF"/>
	<stop  offset="1" style="stop-color:#44C8F5"/>
</radialGradient>
<circle fill="url(#SVGID_1_)" cx="28" cy="40" r="56.25"/>
<g>
	<path fill="#EE4623" d="M41.901-12.581c1.825-0.154,3.66-0.236,5.524-0.236c1.303,0,2.598,0.046,3.883,0.12
		c-7.685-3.712-16.304-5.794-25.412-5.794c-0.73,0-1.461,0.013-2.189,0.042v2.962c0.139-0.002,0.276-0.004,0.413-0.004
		C30.338-15.494,36.322-14.468,41.901-12.581z"/>
	<path fill="#F58F1F" d="M41.901-12.581c-5.579-1.887-11.562-2.913-17.781-2.913c-0.137,0-0.272,0.005-0.413,0.005v7.148
		C29.422-10.59,35.535-12.044,41.901-12.581z"/>
	<path fill="#F89C1E" d="M41.901-12.581C63.828-5.169,79.617,15.572,79.617,40c0,5.268-0.74,10.366-2.111,15.195
		c0.621,3.331,0.994,6.743,1.088,10.229c3.715-7.688,5.797-16.311,5.797-25.423c0-23.198-13.502-43.242-33.08-52.697
		c-1.281-0.075-2.582-0.118-3.882-0.118C45.562-12.818,43.727-12.735,41.901-12.581z"/>
	<path fill="#FAC310" d="M25.897,0.803c15.558,0,28.998,9.062,35.33,22.194c8.201,8.802,13.979,19.887,16.279,32.196
		c1.371-4.826,2.111-9.926,2.111-15.196c0-24.427-15.789-45.168-37.716-52.58c-6.368,0.537-12.48,1.991-18.193,4.242v9.205
		C24.436,0.822,25.164,0.803,25.897,0.803z"/>
	<path fill="#0E4C87" d="M61.227,22.997C54.893,9.864,41.451,0.803,25.897,0.803c-0.733,0-1.461,0.022-2.187,0.061v-9.203v-7.15
		c-3.271,0.022-6.476,0.33-9.586,0.895C7.458-13.383,1.213-10.979-4.39-7.613V4.974v8.104V87.61c2.61,1.571,5.362,2.929,8.233,4.052
		V72.4c6.281,4.292,13.875,6.794,22.054,6.794C47.551,79.194,65.1,61.651,65.1,40C65.1,33.909,63.704,28.14,61.227,22.997z
		 M24.123,74.122c-3.48,0-6.837-0.524-10-1.492V7.367c3.162-0.968,6.52-1.486,10-1.486c18.843,0,34.121,15.275,34.121,34.12
		C58.242,58.846,42.965,74.122,24.123,74.122z"/>
	<path fill="#EE4623" d="M24.123,95.489c-3.415,0-6.757-0.309-10-0.895c-3.558-0.649-6.996-1.64-10.278-2.933v2.526
		c6.804,2.777,14.252,4.304,22.052,4.304c23.197,0,43.238-13.502,52.697-33.07c-0.094-3.487-0.467-6.898-1.088-10.229
		C70.902,78.454,49.501,95.489,24.123,95.489z"/>
	<path fill="#F58F1F" d="M24.123,95.489c25.378,0,46.781-17.035,53.383-40.294c-2.3-12.312-8.078-23.396-16.279-32.198
		C63.704,28.14,65.1,33.911,65.1,40.001c0,21.65-17.547,39.194-39.203,39.194c-8.176,0-15.772-2.502-22.052-6.795v19.263
		c3.282,1.293,6.721,2.283,10.278,2.935C17.365,95.181,20.708,95.489,24.123,95.489z"/>
	<g>
		<g>
			<path fill="#FFFFFF" d="M21.367,90.656c0,1.37-0.555,2.497-1.662,3.362c-1.069,0.845-2.394,1.266-3.966,1.266
				c-1.392,0-2.636-0.288-3.732-0.87l0.896-2.803c1.338,0.442,2.32,0.659,2.957,0.659c0.625,0,1.135-0.135,1.55-0.405
				c0.459-0.293,0.692-0.691,0.692-1.188c0-0.562-0.262-1.011-0.78-1.344c-0.452-0.303-1.012-0.454-1.667-0.454
				c-0.389,0-0.674,0.021-0.86,0.063v-2.176c1.801,0,2.703-0.541,2.703-1.614c0-0.426-0.228-0.771-0.677-1.03
				c-0.394-0.235-0.864-0.357-1.415-0.364c-0.816-0.013-1.596,0.21-2.349,0.658v-2.967c0.92-0.384,1.922-0.574,2.999-0.574
				c1.22,0,2.252,0.285,3.102,0.853c1.045,0.677,1.57,1.646,1.57,2.904c0,1.262-0.503,2.145-1.51,2.663
				c0.645,0.287,1.163,0.739,1.553,1.352C21.171,89.261,21.367,89.935,21.367,90.656z"/>
			<path fill="#FFFFFF" d="M32.28,90.047c0,1.615-0.493,2.913-1.476,3.883c-0.943,0.905-2.133,1.356-3.573,1.356
				c-1.41,0-2.581-0.459-3.509-1.381c-0.968-0.96-1.454-2.238-1.454-3.821c0-0.893,0.206-1.748,0.606-2.57
				c0.351-0.718,0.973-1.621,1.864-2.719l2.862-3.528h3.819l-3.522,4.318c1.223,0.159,2.222,0.569,2.995,1.232
				C31.814,87.631,32.28,88.705,32.28,90.047z M29.076,90.312c0-0.494-0.178-0.912-0.533-1.265
				c-0.351-0.342-0.771-0.522-1.252-0.522c-0.48,0-0.898,0.181-1.254,0.522c-0.352,0.353-0.53,0.771-0.53,1.265
				c0,0.482,0.179,0.896,0.53,1.245c0.355,0.355,0.773,0.526,1.254,0.526c0.481,0,0.901-0.171,1.252-0.526
				C28.896,91.208,29.076,90.794,29.076,90.312z"/>
			<path fill="#FFFFFF" d="M43.451,87.924c0,2.165-0.434,3.917-1.285,5.244c-0.914,1.412-2.16,2.116-3.732,2.116
				c-1.576,0-2.817-0.705-3.727-2.116c-0.861-1.33-1.291-3.079-1.291-5.244c0-1.968,0.431-3.611,1.291-4.924
				c0.932-1.42,2.171-2.129,3.727-2.129c1.552,0,2.795,0.709,3.732,2.129C43.018,84.313,43.451,85.954,43.451,87.924z
				 M40.214,87.953c0-1.119-0.147-2.051-0.456-2.789c-0.334-0.784-0.776-1.178-1.326-1.178c-0.551,0-0.994,0.394-1.33,1.178
				c-0.303,0.738-0.455,1.67-0.455,2.789c0,2.771,0.595,4.157,1.785,4.157C39.621,92.11,40.214,90.724,40.214,87.953z"/>
		</g>
	</g>
</g>
<g>
	<path fill="#EE4623" d="M41.901-12.581c1.825-0.154,3.66-0.236,5.524-0.236c1.303,0,2.598,0.046,3.883,0.12
		c-7.685-3.712-16.304-5.794-25.412-5.794c-0.73,0-1.461,0.013-2.189,0.042v2.962c0.139-0.002,0.276-0.004,0.413-0.004
		C30.338-15.494,36.322-14.468,41.901-12.581z"/>
	<path fill="#F58F1F" d="M41.901-12.581c-5.579-1.887-11.562-2.913-17.781-2.913c-0.137,0-0.272,0.005-0.413,0.005v7.148
		C29.422-10.59,35.535-12.044,41.901-12.581z"/>
	<path fill="#F89C1E" d="M41.901-12.581C63.828-5.169,79.617,15.572,79.617,40c0,5.268-0.74,10.366-2.111,15.195
		c0.621,3.331,0.994,6.743,1.088,10.229c3.715-7.688,5.797-16.311,5.797-25.423c0-23.198-13.502-43.242-33.08-52.697
		c-1.281-0.075-2.582-0.118-3.882-0.118C45.562-12.818,43.727-12.735,41.901-12.581z"/>
	<path fill="#FAC310" d="M25.897,0.803c15.558,0,28.998,9.062,35.33,22.194c8.201,8.802,13.979,19.887,16.279,32.196
		c1.371-4.826,2.111-9.926,2.111-15.196c0-24.427-15.789-45.168-37.716-52.58c-6.368,0.537-12.48,1.991-18.193,4.242v9.205
		C24.436,0.822,25.164,0.803,25.897,0.803z"/>
	<path fill="#0E4C87" d="M61.227,22.997C54.893,9.864,41.451,0.803,25.897,0.803c-0.733,0-1.461,0.022-2.187,0.061v-9.203v-7.15
		c-3.271,0.022-6.476,0.33-9.586,0.895C7.458-13.383,1.213-10.979-4.39-7.613V4.974v8.104V87.61c2.61,1.571,5.362,2.929,8.233,4.052
		V72.4c6.281,4.292,13.875,6.794,22.054,6.794C47.551,79.194,65.1,61.651,65.1,40C65.1,33.909,63.704,28.14,61.227,22.997z
		 M24.123,74.122c-3.48,0-6.837-0.524-10-1.492V7.367c3.162-0.968,6.52-1.486,10-1.486c18.843,0,34.121,15.275,34.121,34.12
		C58.242,58.846,42.965,74.122,24.123,74.122z"/>
	<path fill="#EE4623" d="M24.123,95.489c-3.415,0-6.757-0.309-10-0.895c-3.558-0.649-6.996-1.64-10.278-2.933v2.526
		c6.804,2.777,14.252,4.304,22.052,4.304c23.197,0,43.238-13.502,52.697-33.07c-0.094-3.487-0.467-6.898-1.088-10.229
		C70.902,78.454,49.501,95.489,24.123,95.489z"/>
	<path fill="#F58F1F" d="M24.123,95.489c25.378,0,46.781-17.035,53.383-40.294c-2.3-12.312-8.078-23.396-16.279-32.198
		C63.704,28.14,65.1,33.911,65.1,40.001c0,21.65-17.547,39.194-39.203,39.194c-8.176,0-15.772-2.502-22.052-6.795v19.263
		c3.282,1.293,6.721,2.283,10.278,2.935C17.365,95.181,20.708,95.489,24.123,95.489z"/>
	<g>
		<g>
			<path fill="#FFFFFF" d="M21.367,90.656c0,1.37-0.555,2.497-1.662,3.362c-1.069,0.845-2.394,1.266-3.966,1.266
				c-1.392,0-2.636-0.288-3.732-0.87l0.896-2.803c1.338,0.442,2.32,0.659,2.957,0.659c0.625,0,1.135-0.135,1.55-0.405
				c0.459-0.293,0.692-0.691,0.692-1.188c0-0.562-0.262-1.011-0.78-1.344c-0.452-0.303-1.012-0.454-1.667-0.454
				c-0.389,0-0.674,0.021-0.86,0.063v-2.176c1.801,0,2.703-0.541,2.703-1.614c0-0.426-0.228-0.771-0.677-1.03
				c-0.394-0.235-0.864-0.357-1.415-0.364c-0.816-0.013-1.596,0.21-2.349,0.658v-2.967c0.92-0.384,1.922-0.574,2.999-0.574
				c1.22,0,2.252,0.285,3.102,0.853c1.045,0.677,1.57,1.646,1.57,2.904c0,1.262-0.503,2.145-1.51,2.663
				c0.645,0.287,1.163,0.739,1.553,1.352C21.171,89.261,21.367,89.935,21.367,90.656z"/>
			<path fill="#FFFFFF" d="M32.28,90.047c0,1.615-0.493,2.913-1.476,3.883c-0.943,0.905-2.133,1.356-3.573,1.356
				c-1.41,0-2.581-0.459-3.509-1.381c-0.968-0.96-1.454-2.238-1.454-3.821c0-0.893,0.206-1.748,0.606-2.57
				c0.351-0.718,0.973-1.621,1.864-2.719l2.862-3.528h3.819l-3.522,4.318c1.223,0.159,2.222,0.569,2.995,1.232
				C31.814,87.631,32.28,88.705,32.28,90.047z M29.076,90.312c0-0.494-0.178-0.912-0.533-1.265
				c-0.351-0.342-0.771-0.522-1.252-0.522c-0.48,0-0.898,0.181-1.254,0.522c-0.352,0.353-0.53,0.771-0.53,1.265
				c0,0.482,0.179,0.896,0.53,1.245c0.355,0.355,0.773,0.526,1.254,0.526c0.481,0,0.901-0.171,1.252-0.526
				C28.896,91.208,29.076,90.794,29.076,90.312z"/>
			<path fill="#FFFFFF" d="M43.451,87.924c0,2.165-0.434,3.917-1.285,5.244c-0.914,1.412-2.16,2.116-3.732,2.116
				c-1.576,0-2.817-0.705-3.727-2.116c-0.861-1.33-1.291-3.079-1.291-5.244c0-1.968,0.431-3.611,1.291-4.924
				c0.932-1.42,2.171-2.129,3.727-2.129c1.552,0,2.795,0.709,3.732,2.129C43.018,84.313,43.451,85.954,43.451,87.924z
				 M40.214,87.953c0-1.119-0.147-2.051-0.456-2.789c-0.334-0.784-0.776-1.178-1.326-1.178c-0.551,0-0.994,0.394-1.33,1.178
				c-0.303,0.738-0.455,1.67-0.455,2.789c0,2.771,0.595,4.157,1.785,4.157C39.621,92.11,40.214,90.724,40.214,87.953z"/>
		</g>
	</g>
</g>
</svg>
